<?xml version="1.0" encoding="UTF-8"?>
<svg width="186px" height="200px" viewBox="0 0 186 200" version="1.1" xmlns="http://www.w3.org/2000/svg" xmlns:xlink="http://www.w3.org/1999/xlink">
    <!-- Generator: Sketch 49.3 (51167) - http://www.bohemiancoding.com/sketch -->
    <title>Group 2 Copy</title>
    <desc>Created with Sketch.</desc>
    <defs></defs>
    <g id="Page-1" stroke="none" stroke-width="1" fill="none" fill-rule="evenodd">
        <g id="Artboard-7-Copy" transform="translate(-2365.000000, -1182.000000)">
            <g id="Group-2-Copy" transform="translate(2364.000000, 1181.000000)">
                <path d="M103.318367,198.273041 L167.182784,162.091428 C171.664309,159.552475 174.649482,155.011291 175.203213,149.89038 L186.370217,46.6177942 C187.160341,39.3107149 182.870712,32.4051213 175.970127,29.8753714 L100.928183,2.36504356 C97.4203833,1.07908641 93.5731612,1.06122113 90.0535698,2.31454529 L12.5935995,29.8979889 C5.55788161,32.4034034 1.19135831,39.443038 2.07287109,46.8593284 L14.3242108,149.931564 C14.9300744,155.02878 17.944727,159.525824 22.4296403,162.022668 L87.6487935,198.331514 C92.5247534,201.046061 98.462802,201.023902 103.318367,198.273041 Z" id="Oval" fill="#5A5A5A"></path>
                <path d="M136.375,35.6562 L115.75,71.3752 L130.688,71.3752 L130.688,106.8442 C130.688,110.309 128.0591,112.938 124.5942,112.938 L67.0002,112.938 L67.0002,124.344 L124.5942,124.344 C134.1762,124.344 142.0942,116.426 142.0942,106.844 L142.0942,71.375 L157.0002,71.375 L136.375,35.6562 Z" id="Shape" fill="#FFFFFF" fill-rule="nonzero"></path>
                <path d="M93.8331911,35.5 L79.1665244,60.8732419 L89.7891022,60.8732419 L89.7891022,86.0688945 C89.7891022,88.5301394 87.9196622,90.397668 85.4557333,90.397668 L44.5,90.397668 L44.5,98.5 L85.4557333,98.5 C92.2696,98.5 97.9001778,92.8753932 97.9001778,86.0687524 L97.9001778,60.8730998 L108.5,60.8730998 L93.8331911,35.5 Z" id="Shape" fill="#FFFFFF" fill-rule="nonzero" transform="translate(76.500000, 67.000000) rotate(-90.000000) translate(-76.500000, -67.000000) "></path>
                <path d="M93.8331911,97.5 L79.1665244,122.873242 L89.7891022,122.873242 L89.7891022,148.068894 C89.7891022,150.530139 87.9196622,152.397668 85.4557333,152.397668 L44.5,152.397668 L44.5,160.5 L85.4557333,160.5 C92.2696,160.5 97.9001778,154.875393 97.9001778,148.068752 L97.9001778,122.8731 L108.5,122.8731 L93.8331911,97.5 Z" id="Shape" fill="#FFFFFF" fill-rule="nonzero" transform="translate(76.500000, 129.000000) rotate(-270.000000) translate(-76.500000, -129.000000) "></path>
            </g>
        </g>
    </g>
</svg>